<svg width="34" height="34" viewBox="0 0 34 34" fill="none" xmlns="http://www.w3.org/2000/svg">
<g clip-path="url(#clip0_25_72)">
<path d="M24.8335 20.6924C24.8335 22.1204 25.2398 22.6899 26.3023 22.6899C28.6704 22.6899 30.1783 19.6724 30.1783 14.654C30.1783 6.98363 24.5887 3.31163 17.6102 3.31163C10.4311 3.31163 3.90141 8.12603 3.90141 17.2244C3.90141 25.9148 9.61341 30.6476 18.3854 30.6476C21.3638 30.6476 23.363 30.3212 26.4213 29.3012L27.0775 32.0331C24.0583 33.014 20.8317 33.2979 18.3446 33.2979C6.83901 33.2979 0.676514 26.9739 0.676514 17.2227C0.676514 7.38993 7.81821 0.69873 17.651 0.69873C27.8918 0.69873 33.3165 6.81873 33.3165 14.3259C33.3165 20.6907 31.319 25.5459 25.0358 25.5459C22.1781 25.5459 20.303 24.4035 20.0582 21.8722C19.3238 24.6874 17.3654 25.5459 14.7117 25.5459C11.1621 25.5459 8.18371 22.8106 8.18371 17.3043C8.18371 11.7555 10.7966 8.32833 15.4886 8.32833C17.9774 8.32833 19.5278 9.30753 20.218 10.8579L21.4029 8.69553H24.8301V20.6924H24.8335ZM19.8168 15.3068C19.8168 13.0645 18.1423 12.1244 16.7551 12.1244C15.2455 12.1244 13.5744 13.3467 13.5744 16.9388C13.5744 19.7948 14.8392 21.386 16.7551 21.386C18.1015 21.386 19.8168 20.5292 19.8168 18.1628V15.3068Z" fill="white"/>
</g>
<defs>
<clipPath id="clip0_25_72">
<rect width="34" height="34" fill="white"/>
</clipPath>
</defs>
</svg>
