<svg width="36" height="35" viewBox="0 0 36 35" fill="none" xmlns="http://www.w3.org/2000/svg">
<path d="M12.0318 28.1819C12.0318 28.3267 11.865 28.4425 11.6547 28.4425C11.4154 28.4642 11.2486 28.3484 11.2486 28.1819C11.2486 28.0372 11.4154 27.9214 11.6257 27.9214C11.8433 27.8997 12.0318 28.0155 12.0318 28.1819ZM9.77632 27.8563C9.72555 28.001 9.8706 28.1675 10.0882 28.2109C10.2767 28.2833 10.4943 28.2109 10.5378 28.0662C10.5813 27.9214 10.4435 27.7549 10.226 27.6898C10.0374 27.6392 9.82709 27.7115 9.77632 27.8563ZM12.9819 27.7332C12.7716 27.7839 12.6265 27.9214 12.6483 28.0879C12.6701 28.2326 12.8586 28.3267 13.0762 28.276C13.2865 28.2254 13.4316 28.0879 13.4098 27.9431C13.388 27.8056 13.1922 27.7115 12.9819 27.7332ZM17.754 0C7.69486 0 0 7.62085 0 17.659C0 25.6851 5.06222 32.5533 12.2929 34.9705C13.2212 35.137 13.5476 34.5652 13.5476 34.0948C13.5476 33.6461 13.5258 31.1709 13.5258 29.6511C13.5258 29.6511 8.44912 30.7367 7.38301 27.4944C7.38301 27.4944 6.55623 25.3884 5.36682 24.8456C5.36682 24.8456 3.70601 23.7093 5.48286 23.731C5.48286 23.731 7.28873 23.8758 8.28231 25.5982C9.8706 28.3918 12.5323 27.5885 13.5694 27.1108C13.7362 25.9529 14.2076 25.1495 14.7298 24.6719C10.6756 24.2232 6.58524 23.6369 6.58524 16.6747C6.58524 14.6844 7.13642 13.6857 8.29682 12.4119C8.10825 11.9415 7.4918 10.0019 8.48538 7.49782C10.0011 7.02739 13.4896 9.45188 13.4896 9.45188C14.9401 9.04659 16.4994 8.83671 18.0441 8.83671C19.5889 8.83671 21.1482 9.04659 22.5987 9.45188C22.5987 9.45188 26.0871 7.02016 27.6029 7.49782C28.5965 10.0092 27.98 11.9415 27.7914 12.4119C28.9518 13.6929 29.6626 14.6917 29.6626 16.6747C29.6626 23.6587 25.3909 24.2159 21.3368 24.6719C22.004 25.2436 22.5697 26.3292 22.5697 28.03C22.5697 30.4689 22.5479 33.4869 22.5479 34.0803C22.5479 34.5508 22.8815 35.1225 23.8026 34.956C31.055 32.5533 35.9722 25.6851 35.9722 17.659C35.9722 7.62085 27.8132 0 17.754 0ZM7.04939 24.9614C6.95511 25.0337 6.97687 25.2002 7.10016 25.3377C7.2162 25.4535 7.38301 25.5042 7.47729 25.4101C7.57157 25.3377 7.54981 25.1712 7.42652 25.0337C7.31048 24.9179 7.14368 24.8673 7.04939 24.9614ZM6.26613 24.3751C6.21536 24.4692 6.28789 24.585 6.43294 24.6574C6.54897 24.7298 6.69402 24.7081 6.74479 24.6067C6.79556 24.5126 6.72303 24.3969 6.57798 24.3245C6.43294 24.2811 6.3169 24.3028 6.26613 24.3751ZM8.61593 26.9516C8.49989 27.0457 8.5434 27.2628 8.71021 27.4003C8.87702 27.5668 9.08734 27.5885 9.18162 27.4727C9.2759 27.3786 9.23239 27.1615 9.08734 27.024C8.92778 26.8575 8.71021 26.8358 8.61593 26.9516ZM7.78915 25.8877C7.67311 25.9601 7.67311 26.1483 7.78915 26.3147C7.90519 26.4812 8.101 26.5536 8.19528 26.4812C8.31132 26.3871 8.31132 26.1989 8.19528 26.0325C8.09375 25.866 7.90519 25.7936 7.78915 25.8877Z" fill="white"/>
</svg>
