<svg width="44" height="44" viewBox="0 0 44 44" fill="none" xmlns="http://www.w3.org/2000/svg">
<path d="M33.8068 5.60999H10.1934C8.97891 5.61337 7.81508 6.09735 6.95628 6.95615C6.09747 7.81496 5.61349 8.97878 5.61011 10.1933V33.8067C5.61349 35.0212 6.09747 36.185 6.95628 37.0438C7.81508 37.9026 8.97891 38.3866 10.1934 38.39H33.8068C35.0224 38.39 36.1881 37.9071 37.0477 37.0476C37.9072 36.188 38.3901 35.0222 38.3901 33.8067V10.1933C38.3901 8.97774 37.9072 7.81195 37.0477 6.95241C36.1881 6.09287 35.0224 5.60999 33.8068 5.60999ZM36.5568 33.8067C36.552 34.5345 36.2607 35.2312 35.746 35.7459C35.2313 36.2606 34.5346 36.5518 33.8068 36.5567H10.1934C9.46558 36.5518 8.76889 36.2606 8.25421 35.7459C7.73952 35.2312 7.44825 34.5345 7.44344 33.8067V10.1933C7.44825 9.46546 7.73952 8.76877 8.25421 8.25408C8.76889 7.7394 9.46558 7.44812 10.1934 7.44332H33.8068C34.5346 7.44812 35.2313 7.7394 35.746 8.25408C36.2607 8.76877 36.552 9.46546 36.5568 10.1933V33.8067Z" fill="white"/>
<path d="M11.6895 19.7047C11.6895 19.2184 11.8826 18.7521 12.2264 18.4083C12.5702 18.0645 13.0366 17.8713 13.5228 17.8713C14.009 17.8713 14.4753 18.0645 14.8191 18.4083C15.163 18.7521 15.3561 19.2184 15.3561 19.7047V31.6213C15.3561 32.1076 15.163 32.5739 14.8191 32.9177C14.4753 33.2615 14.009 33.4547 13.5228 33.4547C13.0366 33.4547 12.5702 33.2615 12.2264 32.9177C11.8826 32.5739 11.6895 32.1076 11.6895 31.6213V19.7047Z" fill="white"/>
<path d="M13.5228 14.1973C14.5353 14.1973 15.3561 13.3765 15.3561 12.364C15.3561 11.3515 14.5353 10.5306 13.5228 10.5306C12.5103 10.5306 11.6895 11.3515 11.6895 12.364C11.6895 13.3765 12.5103 14.1973 13.5228 14.1973Z" fill="white"/>
<path d="M32.3033 24.5117V31.625C32.3033 32.1113 32.1102 32.5776 31.7664 32.9214C31.4226 33.2652 30.9562 33.4584 30.47 33.4584C29.9838 33.4584 29.5175 33.2652 29.1736 32.9214C28.8298 32.5776 28.6367 32.1113 28.6367 31.625V24.5117C28.6367 23.7264 28.3247 22.9733 27.7695 22.4181C27.2142 21.8628 26.4611 21.5509 25.6758 21.5509C24.8906 21.5509 24.1375 21.8628 23.5822 22.4181C23.027 22.9733 22.715 23.7264 22.715 24.5117V31.625C22.715 32.1113 22.5219 32.5776 22.178 32.9214C21.8342 33.2652 21.3679 33.4584 20.8817 33.4584C20.3954 33.4584 19.9291 33.2652 19.5853 32.9214C19.2415 32.5776 19.0483 32.1113 19.0483 31.625V19.7084C19.0559 19.2245 19.2515 18.7626 19.5937 18.4204C19.9359 18.0782 20.3978 17.8826 20.8817 17.875C21.1922 17.8665 21.4992 17.9421 21.7703 18.0938C22.0414 18.2455 22.2665 18.4676 22.4217 18.7367C23.4298 18.1654 24.5702 17.8687 25.7289 17.8764C26.8876 17.884 28.024 18.1958 29.0244 18.7805C30.0249 19.3651 30.8542 20.2022 31.4297 21.208C32.0051 22.2137 32.3063 23.353 32.3033 24.5117Z" fill="white"/>
</svg>
