<svg width="18" height="18" viewBox="0 0 18 18" fill="none" xmlns="http://www.w3.org/2000/svg">
<path d="M4.5 16.5C4.0875 16.5 3.7345 16.3533 3.441 16.0597C3.1475 15.7662 3.0005 15.413 3 15V3C3 2.5875 3.147 2.2345 3.441 1.941C3.735 1.6475 4.088 1.5005 4.5 1.5H13.5C13.9125 1.5 14.2657 1.647 14.5597 1.941C14.8538 2.235 15.0005 2.588 15 3V15C15 15.4125 14.8533 15.7657 14.5597 16.0597C14.2662 16.3538 13.913 16.5005 13.5 16.5H4.5ZM4.5 15H13.5V3H12V8.25L10.125 7.125L8.25 8.25V3H4.5V15Z" fill="#D0E53C"/>
</svg>
