<svg width="20" height="20" viewBox="0 0 20 20" fill="none" xmlns="http://www.w3.org/2000/svg">
<g clip-path="url(#clip0_24_11)">
<path d="M1.38198 8.50498V13.563C1.38185 14.2272 1.51256 14.8849 1.76664 15.4985C2.02072 16.1122 2.39319 16.6698 2.86279 17.1395C3.33239 17.6092 3.88991 17.9817 4.50352 18.2359C5.11713 18.4901 5.77481 18.621 6.43898 18.621H10.116C10.7802 18.621 11.4378 18.4901 12.0514 18.2359C12.6651 17.9817 13.2226 17.6092 13.6922 17.1395C14.1618 16.6698 14.5343 16.1122 14.7883 15.4985C15.0424 14.8849 15.1731 14.2272 15.173 13.563V8.50598L1.38198 8.50498ZM11.887 0.159976C12.0273 0.277468 12.1152 0.44588 12.1313 0.628165C12.1474 0.81045 12.0905 0.991676 11.973 1.13198C11.331 1.89698 11.189 2.41898 11.387 2.76898C11.449 2.87798 11.98 3.71698 12.102 3.97598C12.378 4.56098 12.414 5.12798 12.176 5.79798C12.0013 6.27936 11.7475 6.7282 11.425 7.12598H15.306C15.7433 7.14198 16.06 7.25364 16.256 7.46098C16.3653 7.57498 16.4443 7.71898 16.493 7.89298L16.553 7.89098C17.4676 7.89098 18.3447 8.2543 18.9914 8.90102C19.6382 9.54774 20.0015 10.4249 20.0015 11.3395C20.0015 12.2541 19.6382 13.1312 18.9914 13.7779C18.3447 14.4247 17.4676 14.788 16.553 14.788L16.437 14.784C16.1528 16.2519 15.3667 17.5751 14.2136 18.5268C13.0605 19.4785 11.6121 19.9994 10.117 20H6.43798C5.59271 20 4.75572 19.8335 3.9748 19.51C3.19389 19.1865 2.48434 18.7123 1.88669 18.1146C1.28904 17.5168 0.814989 16.8072 0.491608 16.0262C0.168228 15.2453 0.00185263 14.4082 0.00198396 13.563V8.33698C-0.018016 7.90364 0.0633173 7.59698 0.245984 7.41698C0.429317 7.23698 0.698984 7.14031 1.05498 7.12698H4.00798C4.0466 7.06299 4.09522 7.00559 4.15198 6.95698C4.76198 6.43998 5.15998 5.89998 5.35998 5.33698C5.47398 5.01698 5.46098 4.82698 5.33798 4.56598C5.25998 4.39998 4.76898 3.62398 4.67098 3.44998C4.13198 2.49798 4.42898 1.40598 5.39898 0.247976C5.45603 0.175076 5.52716 0.114398 5.60814 0.0695563C5.68911 0.0247143 5.77829 -0.0033755 5.87035 -0.0130407C5.96241 -0.0227059 6.05547 -0.0137489 6.144 0.013297C6.23253 0.0403429 6.31471 0.0849248 6.38565 0.144388C6.45659 0.203852 6.51484 0.276982 6.55693 0.359424C6.59902 0.441865 6.6241 0.531934 6.63066 0.624267C6.63722 0.7166 6.62514 0.809309 6.59513 0.896876C6.56512 0.984443 6.5178 1.06508 6.45598 1.13398C5.81398 1.89898 5.67298 2.42098 5.87098 2.77098C5.93198 2.87998 6.46398 3.71898 6.58598 3.97798C6.86098 4.56298 6.89798 5.12998 6.65898 5.79998C6.48462 6.28129 6.23114 6.73013 5.90898 7.12798H6.76698C6.8056 7.06398 6.85422 7.00659 6.91098 6.95798C7.51998 6.43998 7.91798 5.89998 8.11798 5.33698C8.23198 5.01698 8.21998 4.82698 8.09598 4.56598C8.01798 4.39998 7.52698 3.62398 7.42898 3.44998C6.88998 2.49798 7.18698 1.40598 8.15798 0.247976C8.21454 0.173693 8.28558 0.111659 8.36681 0.0656317C8.44804 0.0196041 8.53776 -0.00946028 8.63055 -0.0198018C8.72334 -0.0301433 8.81726 -0.0215468 8.90663 0.00546722C8.996 0.0324813 9.07895 0.0773509 9.15048 0.13736C9.222 0.197368 9.2806 0.271268 9.32273 0.354584C9.36486 0.4379 9.38964 0.528899 9.39558 0.622072C9.40152 0.715246 9.38849 0.808655 9.35727 0.896645C9.32606 0.984635 9.27731 1.06537 9.21398 1.13398C8.57298 1.89898 8.43098 2.42098 8.62898 2.77098C8.69098 2.87998 9.22198 3.71898 9.34398 3.97798C9.61998 4.56298 9.65598 5.12998 9.41698 5.79998C9.24262 6.28129 8.98914 6.73013 8.66698 7.12798H9.52598C9.5643 7.06406 9.61257 7.00667 9.66898 6.95798C10.279 6.43998 10.676 5.89998 10.876 5.33698C10.99 5.01698 10.978 4.82698 10.854 4.56598C10.776 4.39998 10.286 3.62398 10.187 3.44998C9.64898 2.49798 9.94498 1.40598 10.916 0.247976C11.0335 0.107974 11.2017 0.0202915 11.3837 0.00416846C11.5657 -0.0119546 11.7467 0.0447993 11.887 0.161976M16.552 9.27198V13.41C17.1007 13.41 17.627 13.192 18.015 12.804C18.403 12.416 18.621 11.8897 18.621 11.341C18.621 10.7922 18.403 10.266 18.015 9.87797C17.627 9.48996 17.1007 9.27198 16.552 9.27198Z" fill="#D0E53C"/>
</g>
<defs>
<clipPath id="clip0_24_11">
<rect width="20" height="20" fill="white"/>
</clipPath>
</defs>
</svg>
