<svg width="17" height="17" viewBox="0 0 17 17" fill="none" xmlns="http://www.w3.org/2000/svg">
<path d="M14.5209 2.83337H2.47925C1.89245 2.83337 1.41675 3.30907 1.41675 3.89587V13.1042C1.41675 13.691 1.89245 14.1667 2.47925 14.1667H14.5209C15.1077 14.1667 15.5834 13.691 15.5834 13.1042V3.89587C15.5834 3.30907 15.1077 2.83337 14.5209 2.83337Z" stroke="#D0E53C" stroke-width="1.3" stroke-linejoin="round"/>
<path d="M1.41675 3.89587C1.41675 3.61408 1.52869 3.34383 1.72795 3.14457C1.9272 2.94532 2.19746 2.83337 2.47925 2.83337H14.5209C14.8027 2.83337 15.073 2.94532 15.2722 3.14457C15.4715 3.34383 15.5834 3.61408 15.5834 3.89587V7.08337H1.41675V3.89587Z" stroke="#D0E53C" stroke-width="1.3"/>
<path d="M2.83333 4.95841C2.83333 4.56721 3.15047 4.25008 3.54167 4.25008C3.93287 4.25008 4.25 4.56721 4.25 4.95841C4.25 5.34962 3.93287 5.66675 3.54167 5.66675C3.15047 5.66675 2.83333 5.34962 2.83333 4.95841Z" fill="#D0E53C"/>
<path d="M4.95833 4.95841C4.95833 4.56721 5.27547 4.25008 5.66667 4.25008C6.05787 4.25008 6.375 4.56721 6.375 4.95841C6.375 5.34962 6.05787 5.66675 5.66667 5.66675C5.27547 5.66675 4.95833 5.34962 4.95833 4.95841Z" fill="#D0E53C"/>
</svg>
