<svg width="21" height="21" viewBox="0 0 21 21" fill="none" xmlns="http://www.w3.org/2000/svg">
<path d="M11.375 7.875H16.1875L11.375 3.0625V7.875ZM5.25 1.75H12.25L17.5 7V17.5C17.5 17.9641 17.3156 18.4092 16.9874 18.7374C16.6592 19.0656 16.2141 19.25 15.75 19.25H5.25C4.78587 19.25 4.34075 19.0656 4.01256 18.7374C3.68437 18.4092 3.5 17.9641 3.5 17.5V3.5C3.5 2.52875 4.27875 1.75 5.25 1.75ZM12.25 17.5V16.625C12.25 15.4613 9.91375 14.875 8.75 14.875C7.58625 14.875 5.25 15.4613 5.25 16.625V17.5H12.25ZM8.75 10.5C8.28587 10.5 7.84075 10.6844 7.51256 11.0126C7.18437 11.3408 7 11.7859 7 12.25C7 12.7141 7.18437 13.1592 7.51256 13.4874C7.84075 13.8156 8.28587 14 8.75 14C9.21413 14 9.65925 13.8156 9.98744 13.4874C10.3156 13.1592 10.5 12.7141 10.5 12.25C10.5 11.7859 10.3156 11.3408 9.98744 11.0126C9.65925 10.6844 9.21413 10.5 8.75 10.5Z" fill="#D0E53C"/>
</svg>
