<svg width="17" height="17" viewBox="0 0 17 17" fill="none" xmlns="http://www.w3.org/2000/svg">
<g clip-path="url(#clip0_33_2)">
<path d="M12.4169 10.3462C12.4169 11.0602 12.62 11.345 13.1513 11.345C14.3353 11.345 15.0893 9.83622 15.0893 7.32702C15.0893 3.49181 12.2945 1.65582 8.80523 1.65582C5.21568 1.65582 1.95083 4.06301 1.95083 8.61222C1.95083 12.9574 4.80683 15.3238 9.19283 15.3238C10.682 15.3238 11.6816 15.1606 13.2108 14.6506L13.5389 16.0166C12.0293 16.507 10.416 16.649 9.17243 16.649C3.41963 16.649 0.338379 13.487 0.338379 8.61136C0.338379 3.69496 3.90923 0.349365 8.82563 0.349365C13.946 0.349365 16.6584 3.40937 16.6584 7.16297C16.6584 10.3454 15.6596 12.773 12.518 12.773C11.0892 12.773 10.1516 12.2018 10.0292 10.9361C9.66203 12.3437 8.68283 12.773 7.35598 12.773C5.58118 12.773 4.09198 11.4053 4.09198 8.65217C4.09198 5.87777 5.39843 4.16417 7.74443 4.16417C8.98883 4.16417 9.76403 4.65377 10.1091 5.42897L10.7016 4.34776H12.4152V10.3462H12.4169ZM9.90853 7.65341C9.90853 6.53226 9.07128 6.06222 8.37768 6.06222C7.62288 6.06222 6.78733 6.67337 6.78733 8.46942C6.78733 9.89742 7.41973 10.693 8.37768 10.693C9.05088 10.693 9.90853 10.2646 9.90853 9.08142V7.65341Z" fill="#D0E53C"/>
</g>
<defs>
<clipPath id="clip0_33_2">
<rect width="17" height="17" fill="white"/>
</clipPath>
</defs>
</svg>
